<svg width="27" height="35" viewBox="0 0 27 35" fill="none" xmlns="http://www.w3.org/2000/svg">
<g clip-path="url(#clip0_297_824)">
<path d="M13.3778 34.9476C9.77342 34.9476 6.16908 34.904 2.56475 34.9694C0.867318 34.9984 -0.158365 34.7444 0.0222134 32.6104C0.643401 25.2867 1.13457 17.9557 1.63297 10.6247C1.71242 9.43432 2.18192 8.723 3.37374 8.91897C5.78626 9.30367 6.31355 8.01167 6.76138 5.92851C7.64982 1.74768 10.0046 -0.0669215 13.7245 -0.00159594C17.336 0.0637296 19.5752 2.05253 20.4058 6.25514C20.7164 7.8157 20.8537 9.11495 22.9123 8.88268C24.3208 8.723 24.6747 9.57223 24.7975 10.8642C25.462 17.9412 26.1699 25.0108 26.9572 32.0805C27.21 34.3234 26.4371 35.0855 24.1908 34.9911C20.5936 34.8387 16.9821 34.9476 13.3778 34.9476ZM21.6699 10.7408C20.6731 11.5973 22.0021 12.1925 21.9082 12.9764C21.771 14.145 21.1932 14.7765 20.0808 14.7692C18.9468 14.7692 17.95 13.8547 18.34 12.9619C19.763 9.73917 17.3288 10.6755 15.9636 10.6174C13.9267 10.5231 11.8753 10.5884 9.8312 10.6102C8.84886 10.6247 7.70761 10.5303 8.44436 12.1635C9.18112 13.8039 8.50937 14.9072 6.84083 14.8491C4.93393 14.7838 4.86892 13.3829 5.56957 11.982C5.90905 11.3142 6.01018 10.857 5.20841 10.6537C4.60889 10.5013 3.91547 10.5884 3.66266 11.2344C3.40985 11.8877 3.31595 12.6208 3.26539 13.3321C2.83923 19.2332 2.5503 25.1415 1.9869 31.0281C1.80632 32.9515 2.68754 32.9152 3.99493 32.9152C10.2501 32.8935 16.5054 32.8499 22.7606 32.9443C24.5447 32.9733 25.0359 32.4289 24.8481 30.6579C24.198 24.5463 23.6996 18.4202 23.1145 12.3014C23.0351 11.4884 22.9267 10.5376 21.6699 10.7408ZM13.4211 8.87542C14.7429 8.87542 16.0575 8.88994 17.3794 8.86817C18.08 8.86091 18.7445 8.93349 18.8601 7.84473C19.0912 5.58737 16.8304 2.30657 14.5262 1.87107C12.6049 1.50815 10.9074 2.05253 9.7373 3.64212C8.72607 5.0067 7.70761 6.87211 8.43714 8.28024C9.15223 9.65933 11.2397 8.67219 12.706 8.87542C12.9371 8.91172 13.1827 8.88268 13.4211 8.87542Z" fill="black"/>
</g>
<defs>
<clipPath id="clip0_297_824">
<rect width="27" height="35" fill="white"/>
</clipPath>
</defs>
</svg>
