<svg width="26" height="27" viewBox="0 0 26 27" fill="none" xmlns="http://www.w3.org/2000/svg">
<g clip-path="url(#clip0_297_826)">
<path d="M7.72896 13.3565C4.52597 8.41572 4.67156 4.70112 7.99587 1.81599C10.7621 -0.588281 15.0085 -0.600302 17.799 1.79195C21.1233 4.62899 21.2689 8.49988 18.1265 13.2243C19.0729 13.6691 20.0192 14.0658 20.917 14.5346C25.127 16.7225 27.0075 21.0502 25.4667 25.438C25.2241 26.1352 23.938 26.9046 23.1251 26.9166C16.3794 27.0368 9.62163 27.0729 2.87595 26.8806C1.96601 26.8565 0.485841 25.5462 0.303853 24.6205C-0.775942 19.2951 1.09247 16.0733 6.16386 13.9215C6.5885 13.7292 7.04954 13.5969 7.72896 13.3565ZM23.1373 24.6806C24.2171 18.3935 21.3538 16.3498 16.3188 15.5564C13.4798 15.1116 10.3496 15.328 7.57123 16.0733C2.86382 17.3356 1.85682 19.5836 2.88808 24.6806C3.68883 24.6806 4.55024 24.6806 5.39951 24.6806C11.2595 24.6806 17.1195 24.6806 23.1373 24.6806ZM18.1023 7.61029C18.1751 4.86942 15.8699 2.42908 13.1158 2.32089C10.2283 2.2127 7.70469 4.61697 7.69256 7.49008C7.68043 10.1829 10.0948 12.5992 12.8489 12.6352C15.603 12.6593 18.0416 10.3391 18.1023 7.61029Z" fill="black"/>
</g>
<defs>
<clipPath id="clip0_297_826">
<rect width="26" height="27" fill="white"/>
</clipPath>
</defs>
</svg>
