<svg width="155" height="53" viewBox="0 0 155 53" fill="none" xmlns="http://www.w3.org/2000/svg">
<g clip-path="url(#clip0_297_828)">
<path d="M78.8303 27.8228C78.8277 21.4416 83.7473 16.7505 90.4451 16.7479C97.1481 16.7452 102.139 21.4995 102.121 27.8754C102.105 34.1908 97.0979 38.924 90.4319 38.9266C83.7764 38.9292 78.833 34.1987 78.8303 27.8228ZM96.3634 27.807C96.3476 24.5427 93.753 22.0418 90.3949 22.055C87.1292 22.0681 84.5214 24.648 84.5373 27.8517C84.5532 31.0555 87.1794 33.6248 90.4398 33.6221C93.7557 33.6195 96.3766 31.0476 96.3634 27.807Z" fill="#D2AC62"/>
<path d="M25.6841 27.8255C25.6894 21.4154 30.6248 16.7374 37.3808 16.7479C44.0257 16.7558 48.9849 21.5154 48.9691 27.8729C48.9532 34.2014 43.9544 38.9346 37.2962 38.9267C30.6301 38.9188 25.6814 34.1882 25.6841 27.8255ZM43.2383 27.7228C43.1406 24.3848 40.4668 21.955 37.0082 22.0577C33.8588 22.1525 31.3118 24.8165 31.3911 27.9334C31.4756 31.1845 34.1838 33.7223 37.4627 33.617C40.7574 33.5143 43.3335 30.8871 43.2383 27.7228Z" fill="#D2AC62"/>
<path d="M106.33 27.8491C106.324 21.46 111.233 16.7558 117.918 16.7479C124.603 16.74 129.599 21.4495 129.612 27.7701C129.625 34.1592 124.653 38.9187 117.958 38.9266C111.297 38.9345 106.335 34.2066 106.33 27.8491ZM117.989 22.0523C114.695 22.0392 112.076 24.548 112.037 27.757C111.997 30.987 114.636 33.6143 117.929 33.6195C121.242 33.6248 123.887 31.0449 123.879 27.8149C123.873 24.6032 121.279 22.0655 117.989 22.0523Z" fill="#D2AC62"/>
<path d="M140.136 20.1412C141.803 19.3593 143.383 18.6327 145.05 18.1247C146.707 17.6219 148.376 17.2559 150.125 17.3639C152.934 17.5376 154.913 19.412 154.955 22.2077C155.032 27.4095 154.976 32.6113 154.995 37.8131C154.997 38.2659 154.818 38.3396 154.427 38.3317C153.27 38.3106 152.11 38.2843 150.955 38.3396C150.302 38.3712 150.094 38.2159 150.099 37.5209C150.136 33.4721 150.118 29.4233 150.118 25.3746C150.118 25.106 150.125 24.8375 150.11 24.569C150.012 22.9395 149.32 22.2787 147.697 22.3867C145.75 22.5183 143.961 23.1422 142.416 24.3558C140.904 25.5404 140.144 27.1094 140.138 29.0285C140.13 31.8715 140.114 34.7146 140.151 37.5551C140.159 38.208 139.959 38.3554 139.343 38.337C137.998 38.2922 136.651 38.3054 135.306 38.3317C134.841 38.3396 134.645 38.2501 134.645 37.7209C134.664 31.1239 134.661 24.5269 134.648 17.9325C134.648 17.4744 134.793 17.327 135.248 17.3323C136.701 17.3533 138.154 17.356 139.607 17.3323C140.054 17.3244 140.151 17.5008 140.138 17.9009C140.12 18.6143 140.136 19.3303 140.136 20.1412Z" fill="#D2AC62"/>
<path d="M21.4673 31.2582C21.4673 33.0035 21.4488 34.5593 21.4779 36.1125C21.4858 36.5863 21.1925 36.7759 20.8781 36.976C19.2294 38.0237 17.3826 38.4686 15.4776 38.7187C12.8064 39.0714 10.1643 38.9767 7.57239 38.1606C2.84564 36.668 0.150677 33.222 0.00536037 28.4783C-0.14524 23.5344 2.50481 19.3277 6.9832 17.6824C11.1525 16.1503 15.2662 16.4241 19.24 18.4695C19.779 18.7459 20.0221 19.0803 19.993 19.7173C19.9375 20.9757 19.9481 22.2393 19.9877 23.4976C20.0089 24.1399 19.8186 24.1267 19.3193 23.8925C17.5121 23.0448 15.6361 22.3972 13.644 22.1366C11.9874 21.9207 10.3651 22.0681 8.83004 22.7763C5.09408 24.4953 4.57623 29.7445 7.9053 32.1611C9.11011 33.0377 10.484 33.5432 11.9557 33.5932C14.4128 33.6774 16.8489 33.4563 19.1845 32.5981C19.9692 32.3085 20.6932 31.9163 21.4673 31.2582Z" fill="#D2AC62"/>
<path d="M73.1604 24.1719C71.3506 23.3505 69.6385 22.6608 67.8128 22.2949C65.8999 21.9132 64.0134 21.9053 62.1903 22.6951C60.3118 23.5085 59.2021 24.9142 58.9617 26.965C58.7106 29.1025 59.3368 30.8874 61.1255 32.1799C62.3568 33.0697 63.765 33.5567 65.2658 33.5962C67.5591 33.6541 69.8366 33.4514 72.0349 32.7091C72.9332 32.4063 73.7734 32.0009 74.492 31.3797C74.7563 31.5508 74.6374 31.7851 74.64 31.9746C74.6559 32.8854 74.6453 33.7989 74.6453 34.7098C74.6453 36.8579 74.6453 36.9658 72.5791 37.7187C68.3148 39.2745 64.0002 39.4167 59.7173 37.7819C52.6972 35.102 52.0023 27.423 54.3961 22.8267C55.6511 20.4179 57.5085 18.6489 60.0634 17.7091C64.2115 16.1849 68.2883 16.4166 72.2647 18.3725C72.9121 18.691 73.2265 19.0701 73.1842 19.852C73.1049 21.2419 73.1604 22.6398 73.1604 24.1719Z" fill="#D2AC62"/>
<path d="M9.5356 4.59863C10.0191 4.18007 10.3494 3.83258 10.78 3.60881C12.6718 2.62953 14.7142 3.67199 14.8489 5.78589C14.9599 7.5207 14.8859 9.26868 14.8912 11.0114C14.8912 11.064 14.9097 11.1404 14.8833 11.1693C14.3073 11.7327 13.5939 11.3089 12.9519 11.43C12.5265 11.5116 12.4842 11.2299 12.4869 10.8929C12.4974 9.60564 12.5053 8.31835 12.4842 7.03369C12.4736 6.37557 12.5476 5.62004 11.6097 5.47262C10.7272 5.33573 9.98476 5.83327 9.69413 6.71516C9.58316 7.05212 9.56202 7.39697 9.56466 7.7471C9.56995 8.7922 9.57259 9.8373 9.56202 10.8824C9.55938 11.093 9.68092 11.4168 9.28724 11.4247C8.66898 11.4379 8.04809 11.4379 7.42983 11.4221C7.10485 11.4142 7.16033 11.143 7.16033 10.9403C7.15769 7.45489 7.15769 3.96947 7.16033 0.484043C7.16033 0.281341 7.10749 0.0128261 7.43511 0.00492862C8.05337 -0.00560136 8.67427 -0.0213963 9.28988 0.0154586C9.66771 0.0365186 9.52767 0.37611 9.53032 0.58671C9.54353 1.874 9.5356 3.15602 9.5356 4.59863Z" fill="#D2AC62"/>
<path d="M21.4409 7.95806C20.7672 7.95806 20.0935 7.97648 19.4224 7.95279C18.8252 7.93173 18.783 8.20814 19.0128 8.63987C19.3801 9.32695 20.0168 9.57967 20.7487 9.63759C21.5942 9.70603 22.4238 9.56651 23.2059 9.27957C23.7316 9.0874 23.7713 9.25851 23.7792 9.7113C23.803 11.2355 23.7951 11.2829 22.2785 11.5461C21.4013 11.6988 20.503 11.7252 19.6258 11.5488C17.2479 11.0723 15.8925 8.85837 16.4632 6.42594C17.0022 4.11988 19.2136 2.78257 21.5255 3.41174C23.6339 3.98562 24.2495 5.97052 24.0751 7.63163C24.0381 7.99228 23.7792 7.95806 23.5441 7.95806C22.8413 7.96069 22.1411 7.95806 21.4409 7.95806ZM20.3048 6.73658C20.6245 6.73658 20.9469 6.71815 21.2666 6.74184C21.7501 6.77607 21.8927 6.61285 21.7236 6.14164C21.5255 5.58355 21.1688 5.23869 20.577 5.16761C19.9719 5.09653 19.4646 5.28607 19.1238 5.80994C18.9653 6.05476 18.7724 6.34434 18.9151 6.62075C19.0392 6.86031 19.3537 6.71289 19.5809 6.73131C19.824 6.75501 20.0644 6.73921 20.3048 6.73658Z" fill="#D2AC62"/>
<path d="M5.79164 9.39541C5.93431 11.3461 5.91846 11.3856 4.92502 11.5699C3.04648 11.92 1.72013 11.3593 1.28947 10.0246C1.01204 9.16112 1.14679 8.26871 1.11773 7.38945C1.10452 6.96036 1.09395 6.52863 1.12037 6.10216C1.15207 5.60725 1.09131 5.23871 0.454555 5.34137C0.0952268 5.39929 -0.0183844 5.22028 0.00539469 4.88069C0.0265317 4.58848 0.0318159 4.28837 0.00539469 3.99617C-0.031595 3.61182 0.111079 3.43545 0.502113 3.49863C1.06224 3.58813 1.22077 3.30909 1.14679 2.81155C1.14415 2.78522 1.14679 2.7589 1.14679 2.72994C1.16 1.08726 1.16 1.11095 2.78491 1.10569C3.3054 1.10306 3.54055 1.23995 3.45336 1.77434C3.44808 1.80067 3.45336 1.82699 3.45336 1.85595C3.46921 3.41965 3.46921 3.43545 5.0175 3.4881C5.43231 3.50126 5.56442 3.61709 5.57763 4.03829C5.6199 5.33874 5.6384 5.38086 4.33319 5.32558C3.6251 5.29662 3.36617 5.48353 3.43751 6.2101C3.50356 6.87348 3.44544 7.55003 3.45336 8.22132C3.47186 9.50071 3.93159 9.84557 5.19188 9.53757C5.37418 9.49282 5.55649 9.4507 5.79164 9.39541Z" fill="#D2AC62"/>
<path d="M103.283 48.9459C103.283 47.7402 103.32 46.5319 103.267 45.3288C103.238 44.6918 103.537 44.6154 104.039 44.6549C104.467 44.6891 104.953 44.4996 104.94 45.2788C104.898 47.6112 104.913 49.9462 104.935 52.2786C104.937 52.7261 104.813 52.8762 104.348 52.8867C103.143 52.9078 103.146 52.9315 102.763 51.7547C102.443 50.7702 102.118 49.7883 101.782 48.7642C101.508 48.9116 101.566 49.1091 101.566 49.2697C101.561 50.1279 101.563 50.986 101.563 51.8442C101.563 52.9578 101.526 52.9788 100.38 52.8814C100.049 52.8525 99.9066 52.7577 99.9092 52.405C99.9198 49.991 99.9198 47.577 99.9092 45.163C99.9092 44.8365 100.007 44.6917 100.356 44.6523C101.55 44.5101 101.695 44.5891 102.07 45.7316C102.427 46.8135 102.781 47.8981 103.135 48.9827C103.185 48.9696 103.233 48.9564 103.283 48.9459Z" fill="#D2AC62"/>
<path d="M40.739 49.0433C40.739 47.7823 40.7787 46.5214 40.7232 45.2657C40.6915 44.5444 41.1353 44.6602 41.5554 44.6602C41.9755 44.6602 42.4009 44.547 42.3903 45.2657C42.3507 47.598 42.3666 49.9331 42.3824 52.2655C42.3851 52.6945 42.2979 52.8788 41.8144 52.8867C40.5937 52.9104 40.5964 52.9367 40.2185 51.7653C39.8671 50.686 39.5131 49.6066 39.019 48.5642C39.019 49.7856 38.9794 51.0098 39.0349 52.2312C39.0639 52.892 38.7257 52.9157 38.2502 52.8762C37.8353 52.8393 37.3307 53.0578 37.3466 52.2628C37.3888 49.9304 37.373 47.5954 37.3518 45.263C37.3492 44.8102 37.4919 44.6628 37.9463 44.6497C39.1485 44.6128 39.1458 44.5944 39.5104 45.7132C39.8724 46.8267 40.2397 47.9403 40.6043 49.0538C40.6492 49.0485 40.6941 49.0459 40.739 49.0433Z" fill="#D2AC62"/>
<path d="M120.446 46.6529C120.771 46.058 121.044 45.5973 121.279 45.1182C121.44 44.7891 121.657 44.6601 122.032 44.6496C123.173 44.618 123.173 44.5996 123.173 45.7474C123.173 47.8902 123.131 50.0357 123.194 52.1785C123.218 52.9762 122.785 52.8551 122.296 52.8867C121.736 52.9235 121.48 52.8077 121.503 52.1575C121.556 50.6728 121.519 49.1854 121.376 47.6559C121.081 48.1403 120.785 48.622 120.423 49.2144C120.1 48.6668 119.823 48.2008 119.461 47.5901C119.26 48.5589 119.382 49.3723 119.355 50.1778C119.334 50.8465 119.294 51.5231 119.366 52.1864C119.453 52.9894 118.948 52.8604 118.465 52.8867C117.918 52.9183 117.648 52.8261 117.662 52.1627C117.707 49.9409 117.672 47.7138 117.688 45.492C117.691 45.213 117.479 44.726 117.958 44.7049C118.47 44.6812 119.104 44.3627 119.498 45.0024C119.804 45.4973 120.082 46.0106 120.446 46.6529Z" fill="#D2AC62"/>
<path d="M8.73761 48.7537C8.73761 47.5743 8.75346 46.3923 8.72969 45.213C8.72176 44.7918 8.86972 44.6391 9.28717 44.6523C9.87901 44.6733 10.4708 44.6602 11.0653 44.6575C12.072 44.6523 12.8778 45.0208 13.2451 45.9975C13.6229 47.0031 13.6255 48.0245 12.8355 48.8564C12.5264 49.1828 12.463 49.4223 12.611 49.8278C12.9016 50.6333 13.1262 51.4625 13.401 52.2733C13.5595 52.7393 13.4168 52.8499 12.9359 52.892C12.1512 52.9604 11.6651 52.7919 11.562 51.9101C11.496 51.3572 11.3137 50.8097 11.1155 50.2858C11.0072 50.0015 11.1261 49.4355 10.6188 49.5145C10.1934 49.5803 10.4154 50.0541 10.3995 50.3437C10.3678 50.9861 10.344 51.6336 10.4021 52.2733C10.4656 53.0025 9.98469 52.8762 9.57252 52.8683C9.1762 52.8604 8.69534 53.0315 8.7244 52.2918C8.7746 51.115 8.73761 49.9331 8.73761 48.7537ZM10.344 47.1189C10.6056 47.4506 9.96356 48.1745 10.8672 48.1903C11.5647 48.2035 11.7998 47.7428 11.7972 47.1426C11.7945 46.5398 11.5435 46.087 10.8566 46.0922C10.0085 46.1001 10.5686 46.782 10.344 47.1189Z" fill="#D2AC62"/>
<path d="M4.75587 48.7458C4.75587 49.4698 4.79286 50.1937 4.7453 50.915C4.65811 52.2128 3.72544 52.9868 2.33833 52.9684C0.988205 52.9526 0.0555364 52.1128 0.023831 50.8071C-0.0105166 49.4408 -0.0131587 48.0745 0.023831 46.7083C0.0581785 45.4078 0.993489 44.5891 2.36211 44.5812C3.75451 44.5733 4.66075 45.342 4.7453 46.653C4.79286 47.3506 4.75587 48.0509 4.75587 48.7458ZM3.09398 48.8116C3.09398 48.143 3.09926 47.4743 3.09133 46.8057C3.08605 46.3819 2.91431 46.0712 2.4493 46.0344C1.9288 45.9922 1.69629 46.3292 1.68837 46.7688C1.66195 48.1061 1.66459 49.4434 1.68837 50.7808C1.69629 51.1809 1.89974 51.5178 2.37268 51.5178C2.87996 51.5178 3.08341 51.1967 3.09133 50.736C3.10454 50.0963 3.09662 49.454 3.09398 48.8116Z" fill="#D2AC62"/>
<path d="M22.9706 48.788C22.9706 48.0377 22.9283 47.2848 22.9812 46.5372C23.071 45.2236 24.1252 44.4707 25.6259 44.5944C26.8915 44.6971 27.7343 45.6869 27.6656 46.9347C27.6445 47.2953 27.5045 47.4454 27.1848 47.3769C26.7885 47.2901 26.26 47.6744 26.0117 47.0742C25.9641 46.9584 26.0064 46.8057 25.98 46.6767C25.906 46.3029 25.7343 46.0212 25.293 46.0317C24.8465 46.0423 24.6483 46.3476 24.6404 46.7109C24.6114 48.0772 24.6087 49.4461 24.6351 50.8123C24.6431 51.2098 24.8491 51.5468 25.3379 51.5257C25.8214 51.5047 26.0011 51.1493 25.9773 50.7571C25.9536 50.3885 26.305 49.8357 25.4912 49.733C25.0394 49.6751 25.3062 49.146 25.264 48.8301C25.219 48.4878 25.47 48.4457 25.7369 48.4536C25.7633 48.4536 25.7897 48.4536 25.8188 48.4536C27.6656 48.3536 27.6656 48.3536 27.6577 50.5175C27.6498 52.3602 26.3023 53.379 24.5374 52.8762C23.5941 52.6077 23.0234 51.9364 22.9785 50.9624C22.9415 50.2358 22.968 49.5119 22.9706 48.788Z" fill="#D2AC62"/>
<path d="M50.726 52.8157C49.9439 53.0079 49.648 52.7288 49.6507 52.126C49.6533 51.4363 49.1619 51.5732 48.7471 51.5574C48.2979 51.5389 47.9016 51.5152 47.8487 52.1576C47.7985 52.7709 46.8606 53.1474 46.282 52.8473C46.0785 52.742 46.1393 52.6025 46.1736 52.4445C46.7073 49.9884 47.2252 47.5323 47.7774 45.0814C47.9518 44.3075 48.6176 44.7576 49.0562 44.6708C49.3997 44.6023 49.7114 44.6313 49.8171 45.1341C50.3165 47.5428 50.8581 49.9384 51.3813 52.3418C51.5662 53.1948 50.8687 52.7446 50.726 52.8157ZM48.7946 47.219C48.7576 47.2295 48.7206 47.2427 48.6863 47.2532C48.5463 48.0956 48.4036 48.938 48.2688 49.7804C48.2451 49.9252 48.1156 50.149 48.3085 50.199C48.5833 50.2701 48.895 50.278 49.1777 50.2279C49.3733 50.1937 49.2913 49.9621 49.2649 49.8146C49.109 48.9486 48.9505 48.0825 48.7946 47.219Z" fill="#D2AC62"/>
<path d="M111.363 44.6708C112.14 44.4628 112.343 44.8866 112.475 45.5342C112.919 47.735 113.416 49.9252 113.873 52.126C113.923 52.3734 114.24 52.8683 113.661 52.8367C113.194 52.8104 112.406 53.3132 112.285 52.4155C112.187 51.6837 111.889 51.51 111.207 51.5363C110.676 51.5574 110.404 51.6837 110.393 52.2444C110.388 52.4945 110.414 52.842 110.034 52.8552C109.608 52.871 109.165 52.9657 108.763 52.7894C108.589 52.713 108.721 52.4998 108.752 52.3524C109.27 49.9463 109.804 47.5454 110.303 45.1367C110.451 44.4207 110.985 44.7366 111.363 44.6708ZM111.352 47.248C111.315 47.2427 111.278 47.2374 111.241 47.2322C111.099 48.0983 110.953 48.9643 110.813 49.8304C110.789 49.9752 110.673 50.1832 110.906 50.2279C111.165 50.278 111.442 50.278 111.701 50.2358C111.918 50.199 111.844 49.9831 111.82 49.8383C111.667 48.9722 111.508 48.1114 111.352 47.248Z" fill="#D2AC62"/>
<path d="M71.0996 49.6233C71.3242 48.1702 71.5699 46.7223 71.7654 45.2666C71.9107 44.1951 72.7139 44.719 73.2106 44.6953C73.8342 44.6637 73.5065 45.1744 73.4484 45.4561C72.9834 47.7069 72.4603 49.9498 72.0455 52.2111C71.8949 53.035 71.377 52.8455 70.8724 52.8824C70.3598 52.9192 70.0612 52.8429 69.945 52.2137C69.509 49.9024 69.007 47.6016 68.4865 45.3087C68.3729 44.8032 68.4416 44.6295 68.9806 44.6558C70.2382 44.7164 70.1431 44.411 70.3466 45.8194C70.5289 47.0856 70.7535 48.3466 70.9569 49.6102C71.0045 49.6102 71.052 49.6154 71.0996 49.6233Z" fill="#D2AC62"/>
<path d="M83.1844 48.7038C83.1844 47.5507 83.2003 46.3977 83.1765 45.2473C83.1659 44.7892 83.3271 44.6392 83.7816 44.6497C84.8305 44.676 85.8794 44.6813 86.9284 44.6497C87.5097 44.6313 87.5044 44.963 87.4938 45.3684C87.4832 45.7422 87.5704 46.1529 86.9574 46.0923C86.6377 46.0607 86.3128 46.0818 85.9904 46.0871C84.6799 46.1108 84.9124 45.8844 84.8464 47.2506C84.8173 47.8719 84.989 48.0957 85.6364 48.0535C86.4158 48.0035 86.6985 48.4563 86.4607 49.2039C86.3233 49.633 85.9693 49.3961 85.7156 49.4672C85.4356 49.5435 84.9679 49.2645 84.8966 49.7041C84.8094 50.2464 84.7671 50.8229 84.9547 51.3626C84.9811 51.4363 85.2427 51.4442 85.3959 51.4495C85.8266 51.46 86.2626 51.4995 86.6853 51.4442C87.4066 51.3494 87.5493 51.6837 87.5044 52.3155C87.4753 52.7157 87.3855 52.8894 86.9522 52.8815C85.8768 52.8578 84.7988 52.8578 83.7234 52.8815C83.2901 52.8921 83.1712 52.7288 83.1765 52.3208C83.1976 51.1151 83.1844 49.9094 83.1844 48.7038Z" fill="#D2AC62"/>
<path d="M55.1623 48.7037C55.1623 47.5533 55.194 46.4003 55.1517 45.2499C55.1253 44.5312 55.5929 44.6576 56.0051 44.6602C56.4173 44.6602 56.8796 44.526 56.8691 45.2446C56.8374 47.0663 56.8849 48.888 56.8453 50.7071C56.8321 51.3152 57.0144 51.531 57.6168 51.4626C57.9893 51.4205 58.3751 51.4942 58.745 51.4468C59.4214 51.3599 59.5482 51.6784 59.5218 52.2708C59.5033 52.6999 59.4214 52.8973 58.9405 52.8841C57.8652 52.8552 56.7898 52.8631 55.7145 52.8815C55.297 52.8894 55.1491 52.742 55.157 52.3234C55.1755 51.1151 55.1623 49.9094 55.1623 48.7037Z" fill="#D2AC62"/>
<path d="M93.6026 44.6575C94.1944 44.6575 94.7889 44.697 95.3755 44.647C95.9699 44.597 96.0783 44.8471 96.0862 45.3815C96.0941 45.9448 95.9197 46.1818 95.3596 46.0817C94.5723 45.9422 94.3662 46.2634 94.3952 47.0347C94.4586 48.7721 94.3794 50.5148 94.4322 52.2523C94.4534 52.9578 94.0544 52.8788 93.6211 52.8709C93.1851 52.863 92.7148 53.0131 92.7386 52.2365C92.7941 50.4727 92.7307 48.7037 92.7703 46.9373C92.7835 46.3055 92.662 45.9685 91.9486 46.0765C91.4466 46.1528 91.1243 46.0896 91.1164 45.3973C91.1084 44.6707 91.4361 44.6181 91.9883 44.647C92.5272 44.6786 93.0636 44.6575 93.6026 44.6575Z" fill="#D2AC62"/>
<path d="M33.2935 48.7932C33.2935 49.9726 33.267 51.1519 33.304 52.3313C33.3278 53.0974 32.7888 52.8446 32.4189 52.8657C32.0464 52.8868 31.6104 53.0184 31.6184 52.3313C31.6501 49.9726 31.6527 47.6139 31.6184 45.2552C31.6078 44.5391 32.0437 44.6576 32.4612 44.6602C32.876 44.6629 33.3357 44.5391 33.3093 45.2578C33.2591 46.4345 33.2935 47.6139 33.2935 48.7932Z" fill="#D2AC62"/>
<path d="M18.9759 48.7142C18.9759 49.9199 18.9442 51.1282 18.9864 52.3312C19.0102 53.0236 18.5558 52.8788 18.1859 52.863C17.8133 52.8472 17.2981 53.0868 17.306 52.3233C17.3351 49.9646 17.3378 47.6059 17.3034 45.2499C17.2928 44.5259 17.742 44.6602 18.1542 44.6602C18.5663 44.6575 19.0234 44.5285 18.9891 45.2577C18.9362 46.4081 18.9759 47.5612 18.9759 48.7142Z" fill="#D2AC62"/>
<path d="M79.0735 48.7801C79.0735 49.9568 79.0418 51.1362 79.0841 52.3129C79.1105 53.0684 78.5953 52.8552 78.2148 52.8631C77.8476 52.871 77.4037 53.0263 77.4116 52.334C77.4433 49.9779 77.4486 47.6244 77.409 45.2684C77.3958 44.555 77.8159 44.655 78.2386 44.6602C78.6481 44.6655 79.1158 44.5234 79.0867 45.2473C79.0392 46.424 79.0735 47.6034 79.0735 48.7801Z" fill="#D2AC62"/>
</g>
<defs>
<clipPath id="clip0_297_828">
<rect width="155" height="53" fill="white"/>
</clipPath>
</defs>
</svg>
