<svg width="27" height="27" viewBox="0 0 27 27" fill="none" xmlns="http://www.w3.org/2000/svg">
<g clip-path="url(#clip0_297_822)">
<path d="M9.83209 0C19.2215 0.0364668 24.6055 8.48217 20.9049 15.7391C19.8383 17.825 20.2591 18.7804 21.7104 20.0859C23.3067 21.5154 24.7652 23.0908 26.2599 24.6297C26.8041 25.184 27.4209 25.782 26.601 26.6062C25.781 27.4303 25.2151 26.7885 24.6491 26.2561C23.8727 25.5122 23.0818 24.7828 22.3707 23.9878C20.0705 21.406 18.2419 19.2617 13.9173 21.457C9.98447 23.4481 5.69611 21.6904 2.71385 18.1167C-0.246648 14.5648 -0.819881 10.5535 1.14653 6.3598C3.10568 2.18071 6.52331 0.0875202 9.83209 0ZM10.964 19.6775C15.8111 19.7285 19.7294 15.8995 19.8092 11.0276C19.8891 6.40356 16.0143 2.42139 11.3269 2.3047C6.40721 2.1953 2.48891 5.93679 2.41635 10.8233C2.34378 15.7464 6.08794 19.6264 10.964 19.6775Z" fill="black"/>
</g>
<defs>
<clipPath id="clip0_297_822">
<rect width="27" height="27" fill="white"/>
</clipPath>
</defs>
</svg>
